<svg width="60" height="55" viewBox="0 0 60 55" fill="none" xmlns="http://www.w3.org/2000/svg">
<g clip-path="url(#clip0_1_30)">
<path d="M17.5 27.5C23 27.5 27.5 23.375 27.5 18.3333C27.5 13.2917 23 9.16666 17.5 9.16666C12 9.16666 7.5 13.2917 7.5 18.3333C7.5 23.375 12 27.5 17.5 27.5ZM27.5 45.8333V33.6875C24.75 32.7708 21.25 32.0833 17.5 32.0833C7.75 32.0833 0 36.2083 0 41.25V45.8333H27.5ZM55 9.16666H37.5C34.75 9.16666 32.5 11.2292 32.5 13.75V41.25C32.5 43.7708 34.75 45.8333 37.5 45.8333H55C57.75 45.8333 60 43.7708 60 41.25V13.75C60 11.2292 57.75 9.16666 55 9.16666ZM45 41.25H40V13.75H45V41.25Z" fill="#1392BA"/>
</g>
<defs>
<clipPath id="clip0_1_30">
<rect width="60" height="55" fill="white"/>
</clipPath>
</defs>
</svg>
