<svg width="60" height="55" viewBox="0 0 60 55" fill="none" xmlns="http://www.w3.org/2000/svg">
<path d="M54.5377 10.6362C54.313 10.401 54.0378 10.2108 53.7293 10.0776C53.4207 9.94437 53.0855 9.87095 52.7446 9.86193C47.4485 9.73501 40.7469 4.54386 36.3162 2.50674C33.5792 1.25232 31.7723 0.425201 30.4154 0.207317C30.1399 0.170515 29.8599 0.171227 29.5846 0.209432C28.2277 0.427317 26.4208 1.25443 23.6862 2.50886C19.2554 4.54386 12.5539 9.73501 7.2577 9.86193C6.91656 9.87142 6.58117 9.94503 6.27234 10.0782C5.9635 10.2114 5.6878 10.4013 5.46232 10.6362C4.99495 11.1209 4.75381 11.7544 4.79078 12.4004C5.92847 33.6029 14.2246 46.7246 28.7815 54.3506C29.16 54.5473 29.58 54.6489 29.9977 54.6489C30.4154 54.6489 30.8354 54.5473 31.2162 54.3506C45.7731 46.7246 54.0669 33.6029 55.2069 12.4004C55.246 11.7545 55.0056 11.1205 54.5377 10.6362ZM42.9623 18.975L30.6785 35.5914C30.2377 36.1879 29.5454 36.5835 28.86 36.5835C28.1723 36.5835 27.4085 36.2387 26.9262 35.7966L18.2677 27.8575C17.985 27.5974 17.8263 27.2452 17.8263 26.8781C17.8263 26.5109 17.985 26.1588 18.2677 25.8987L20.4069 23.9335C20.6913 23.6754 21.0752 23.5306 21.4754 23.5306C21.8755 23.5306 22.2595 23.6754 22.5439 23.9335L28.1746 29.095L37.9569 15.859C38.1833 15.5562 38.5311 15.3477 38.9246 15.2791C39.3181 15.2105 39.7251 15.2875 40.0569 15.4931L42.5608 17.05C42.8916 17.2572 43.1195 17.5759 43.1947 17.9366C43.27 18.2973 43.1864 18.6706 42.9623 18.975Z" fill="#1392BA"/>
</svg>
