<svg width="21" height="21" viewBox="0 0 21 21" fill="none" xmlns="http://www.w3.org/2000/svg">
<path d="M12.8322 1.0511L11.1367 2.68846C15.2056 6.9017 15.0885 13.6173 10.8753 17.6862L12.5126 19.3816C17.6584 14.4123 17.8014 6.20517 12.8322 1.0511ZM6.05033 7.60055L3.50713 10.0566L5.96317 12.5998C6.29771 12.2776 6.56538 11.8925 6.75086 11.4667C6.93634 11.0409 7.03598 10.5826 7.04408 10.1183C7.05218 9.65386 6.96857 9.19242 6.79804 8.76039C6.62752 8.32836 6.37343 7.93422 6.05033 7.60055ZM9.44126 4.32583L7.7458 5.96319C8.83083 7.08766 9.42502 8.59692 9.39778 10.1593C9.37054 11.7217 8.72411 13.2093 7.60054 14.2953L9.2379 15.9907C12.5101 12.8306 12.6012 7.60641 9.44126 4.32583Z" fill="#F8F8F8"/>
</svg>
