<svg width="60" height="55" viewBox="0 0 60 55" fill="none" xmlns="http://www.w3.org/2000/svg">
<path d="M14.14 46.931C13.7811 47.2171 13.3405 47.4035 12.8701 47.4681C12.3997 47.5327 11.9189 47.473 11.4842 47.2959C11.0495 47.1188 10.679 46.8317 10.4161 46.4683C10.1532 46.1049 10.0089 45.6803 10 45.2444V40.1042C8.67392 40.1042 7.40215 39.6213 6.46447 38.7617C5.52678 37.9022 5 36.7364 5 35.5208V19.4792C5 18.2636 5.52678 17.0978 6.46447 16.2383C7.40215 15.3787 8.67392 14.8958 10 14.8958H37.5C38.8261 14.8958 40.0979 15.3787 41.0355 16.2383C41.9732 17.0978 42.5 18.2636 42.5 19.4792V35.5208C42.5 36.7364 41.9732 37.9022 41.0355 38.7617C40.0979 39.6213 38.8261 40.1042 37.5 40.1042H25.0075L14.14 46.931ZM16.25 39.8429C16.4778 39.8417 16.7015 39.7873 16.9 39.6848L22.7875 35.931C23.2065 35.6639 23.7046 35.5208 24.215 35.5208H35C35.663 35.5208 36.2989 35.2794 36.7678 34.8496C37.2366 34.4198 37.5 33.8369 37.5 33.2292V21.7708C37.5 21.163 37.2366 20.5801 36.7678 20.1504C36.2989 19.7206 35.663 19.4792 35 19.4792H12.5C11.837 19.4792 11.2011 19.7206 10.7322 20.1504C10.2634 20.5801 10 21.163 10 21.7708V33.2292C10 34.4667 11.0725 35.4796 12.5 35.5208C13.525 35.5575 14.2675 35.711 14.61 36.0387C14.93 36.3458 14.9475 36.8637 15 37.8492C15.0075 37.9935 15.0075 38.2548 15 38.6971C15 39.001 15.1317 39.2924 15.3661 39.5073C15.6005 39.7222 15.9185 39.8429 16.25 39.8429ZM45 28.6825C44.992 28.9651 44.992 29.2478 45 29.5304V28.6825C45.05 27.6971 45.07 27.1792 45.39 26.8721C45.7325 26.5444 46.475 26.3908 47.5 26.3542C48.9275 26.3129 50 25.3 50 24.0625V12.6042C50 11.9964 49.7366 11.4135 49.2678 10.9837C48.7989 10.5539 48.163 10.3125 47.5 10.3125H25C24.337 10.3125 23.7011 10.5539 23.2322 10.9837C22.7634 11.4135 22.5 11.9964 22.5 12.6042H17.5V10.3125C17.5 9.09691 18.0268 7.93113 18.9645 7.07158C19.9021 6.21204 21.1739 5.72916 22.5 5.72916H50C51.3261 5.72916 52.5979 6.21204 53.5355 7.07158C54.4732 7.93113 55 9.09691 55 10.3125V26.3542C55 27.5697 54.4732 28.7355 53.5355 29.5951C52.5979 30.4546 51.3261 30.9375 50 30.9375V36.0777C49.9911 36.5137 49.8468 36.9383 49.5839 37.3016C49.321 37.665 48.9505 37.9521 48.5158 38.1292C48.0811 38.3063 47.6003 38.366 47.1299 38.3014C46.6595 38.2368 46.2189 38.0505 45.86 37.7644L45 37.2235V28.6848V28.6825Z" fill="#1392BA"/>
</svg>
